<?xml version="1.0" encoding="utf-8"?>
<!-- Generator: Adobe Illustrator 15.1.0, SVG Export Plug-In . SVG Version: 6.00 Build 0)  -->
<!DOCTYPE svg PUBLIC "-//W3C//DTD SVG 1.1//EN" "http://www.w3.org/Graphics/SVG/1.1/DTD/svg11.dtd">
<svg version="1.1" id="Layer_1" xmlns="http://www.w3.org/2000/svg" xmlns:xlink="http://www.w3.org/1999/xlink" x="0px" y="0px"
	 width="608px" height="612px" viewBox="91.5 0 608 612" enable-background="new 91.5 0 608 612" xml:space="preserve">
<path fill="none" d="M396,604.828C231.219,604.828,97.172,470.762,97.172,306C97.172,141.238,231.219,7.172,396,7.172
	c164.762,0,298.828,134.066,298.828,298.828C694.828,470.762,560.762,604.828,396,604.828z"/>
<path fill="#FFFFFF" d="M438.572,169.945c-30.409,11.073-49.629,39.608-47.449,70.839l0.727,12.049l-12.164-1.473
	c-44.274-5.661-82.964-24.843-115.821-57.069L247.8,178.302l-4.112,11.8c-8.759,26.316-3.156,54.124,15.09,72.828
	c9.734,10.327,7.535,11.8-9.238,5.661c-5.833-1.97-10.958-3.442-11.437-2.696c-1.702,1.721,4.131,24.097,8.759,32.971
	c6.331,12.315,19.221,24.347,33.335,31.499l11.934,5.661l-14.134,0.21c-13.617,0-14.114,0.249-12.642,5.432
	c4.858,15.988,24.079,32.972,45.499,40.354l15.09,5.163l-13.139,7.881c-19.469,11.341-42.343,17.729-65.216,18.188
	c-10.958,0.249-19.966,1.224-19.966,1.97c0,2.448,29.701,16.22,46.952,21.649c51.829,15.989,113.392,9.085,159.617-18.207
	c32.856-19.431,65.693-58.063,81.032-95.472c8.28-19.909,16.543-56.323,16.543-73.784c0-11.322,0.728-12.794,14.345-26.316
	c8.031-7.879,15.566-16.486,17.04-18.934c2.447-4.686,2.181-4.686-10.214-0.497c-20.674,7.382-23.6,6.407-13.367-4.667
	c7.534-7.879,16.543-22.146,16.543-26.316c0-0.727-3.652,0.497-7.784,2.697c-4.379,2.467-14.113,6.158-21.42,8.357l-13.14,4.188
	l-11.915-8.147c-6.577-4.418-15.797-9.352-20.674-10.825C468.752,165.508,449.779,166.005,438.572,169.945z"/>
</svg>
