<?xml version="1.0" encoding="utf-8"?>
<!-- Generator: Adobe Illustrator 15.1.0, SVG Export Plug-In . SVG Version: 6.00 Build 0)  -->
<!DOCTYPE svg PUBLIC "-//W3C//DTD SVG 1.1//EN" "http://www.w3.org/Graphics/SVG/1.1/DTD/svg11.dtd">
<svg version="1.1" id="Layer_1" xmlns="http://www.w3.org/2000/svg" xmlns:xlink="http://www.w3.org/1999/xlink" x="0px" y="0px"
	 width="611px" height="612px" viewBox="89.5 0 611 612" enable-background="new 89.5 0 611 612" xml:space="preserve">
<path fill="none" d="M396.096,604.618c-164.762,0-298.828-134.066-298.828-298.829c0-164.762,134.066-298.828,298.828-298.828
	c164.763,0,298.828,134.067,298.828,298.829C694.924,470.552,560.857,604.618,396.096,604.618z"/>
<path fill="#FFFFFF" d="M554.719,438.574v-117.37c0-62.883-33.563-92.144-78.336-92.144c-36.128,0-52.308,19.871-61.314,33.813
	V233.86h-68.046c0.899,19.221,0,204.714,0,204.714h68.046V324.245c0-6.102,0.439-12.221,2.237-16.581
	c4.915-12.221,16.104-24.882,34.902-24.882c24.634,0,34.482,18.762,34.482,46.282v109.528L554.719,438.574L554.719,438.574z
	 M275.321,205.919c23.715,0,38.499-15.74,38.499-35.381c-0.44-20.081-14.784-35.362-38.059-35.362
	c-23.275,0-38.479,15.262-38.479,35.343c0,19.661,14.764,35.381,37.619,35.381h0.421L275.321,205.919L275.321,205.919z
	 M309.345,438.574V233.86h-68.028v204.714H309.345z"/>
</svg>
