<?xml version="1.0" encoding="utf-8"?>
<!-- Generator: Adobe Illustrator 15.1.0, SVG Export Plug-In . SVG Version: 6.00 Build 0)  -->
<!DOCTYPE svg PUBLIC "-//W3C//DTD SVG 1.1//EN" "http://www.w3.org/Graphics/SVG/1.1/DTD/svg11.dtd">
<svg version="1.1" id="Layer_1" xmlns="http://www.w3.org/2000/svg" xmlns:xlink="http://www.w3.org/1999/xlink" x="0px" y="0px"
	 width="610px" height="612px" viewBox="89.5 0 610 612" enable-background="new 89.5 0 610 612" xml:space="preserve">
<path fill="none" d="M396,604.828C231.219,604.828,97.172,470.762,97.172,306C97.172,141.219,231.219,7.172,396,7.172
	c164.762,0,298.828,134.047,298.828,298.828C694.828,470.762,560.762,604.828,396,604.828z"/>
<path fill="#FFFFFF" d="M351.821,476.27h70.36V305.981h46.935l6.215-58.676h-53.147l0.076-29.376c0-15.3,1.453-23.504,23.409-23.504
	h29.338V135.73h-46.952c-56.4,0-76.231,28.477-76.231,76.347v35.228H316.67V306h35.152v170.27H351.821z"/>
</svg>
