<?xml version="1.0" encoding="utf-8"?>
<!-- Generator: Adobe Illustrator 15.1.0, SVG Export Plug-In . SVG Version: 6.00 Build 0)  -->
<!DOCTYPE svg PUBLIC "-//W3C//DTD SVG 1.1//EN" "http://www.w3.org/Graphics/SVG/1.1/DTD/svg11.dtd">
<svg version="1.1" id="Layer_1" xmlns="http://www.w3.org/2000/svg" xmlns:xlink="http://www.w3.org/1999/xlink" x="0px" y="0px"
	 width="610px" height="612px" viewBox="89.5 0 610 612" enable-background="new 89.5 0 610 612" xml:space="preserve">
<path fill="none" d="M396,604.732c-164.762,0-298.828-134.066-298.828-298.829C97.172,141.142,231.238,7.076,396,7.076
	c164.762,0,298.828,134.066,298.828,298.828C694.828,470.666,560.762,604.732,396,604.732z"/>
<path fill="#FFFFFF" d="M511.84,151.546H280.16c-21.802,0-38.613,16.811-38.613,38.613v231.662
	c0,21.802,16.811,38.612,38.613,38.612h231.662c21.802,0,38.612-16.812,38.612-38.612V190.16
	C550.453,168.357,533.623,151.546,511.84,151.546z M396.229,245.316c34.254,0,62.022,26.909,62.022,60.091
	c0,33.182-27.77,60.091-62.022,60.091c-34.233,0-62.002-26.928-62.002-60.091C334.226,272.225,361.996,245.316,396.229,245.316z
	 M511.84,412.182c0,6.771-2.888,9.658-9.658,9.658H289.818c-6.751,0-9.658-2.888-9.658-9.658V277.045l24.06,5.24
	c-2.582,8.396-3.978,17.27-3.978,26.488c0,51.33,42.993,93.005,95.969,93.005c53.015,0,95.989-41.654,95.989-93.005
	c0-9.219-1.396-18.093-3.979-26.488l23.602-5.24v135.137H511.84z M511.84,238.432c0,5.335-4.322,9.658-9.658,9.658h-38.612
	c-5.336,0-9.658-4.322-9.658-9.658v-38.614c0-5.336,4.322-9.658,9.658-9.658h38.612c5.336,0,9.658,4.322,9.658,9.658V238.432
	L511.84,238.432z"/>
</svg>
