<?xml version="1.0" encoding="utf-8"?>
<!-- Generator: Adobe Illustrator 15.1.0, SVG Export Plug-In . SVG Version: 6.00 Build 0)  -->
<!DOCTYPE svg PUBLIC "-//W3C//DTD SVG 1.1//EN" "http://www.w3.org/Graphics/SVG/1.1/DTD/svg11.dtd">
<svg version="1.1" id="Layer_1" xmlns="http://www.w3.org/2000/svg" xmlns:xlink="http://www.w3.org/1999/xlink" x="0px" y="0px"
	 width="389.271px" height="391.085px" viewBox="0 0 389.271 391.085" enable-background="new 0 0 389.271 391.085"
	 xml:space="preserve">
<g opacity="0.2">
	<g>
		<defs>
			<rect id="SVGID_1_" x="0.001" width="389.269" height="391.085"/>
		</defs>
		<clipPath id="SVGID_2_">
			<use xlink:href="#SVGID_1_"  overflow="visible"/>
		</clipPath>
		<g opacity="0.6" clip-path="url(#SVGID_2_)">
			<g>
				<defs>
					<rect id="SVGID_3_" x="0.001" width="389.269" height="391.085"/>
				</defs>
				<clipPath id="SVGID_4_">
					<use xlink:href="#SVGID_3_"  overflow="visible"/>
				</clipPath>
				<path clip-path="url(#SVGID_4_)" fill="#FFFFFF" d="M191.212,112.022c1.209,3.778,3.191,3.778,4.406,0l19.452-60.645
					c1.212-3.777,2.189-3.623,2.174,0.343l-0.234,63.692c-0.016,3.966,1.865,4.578,4.186,1.359l37.245-51.668
					c2.314-3.217,3.199-2.765,1.96,1.001l-19.908,60.501c-1.241,3.767,0.361,4.931,3.561,2.591l51.389-37.637
					c3.199-2.342,3.899-1.64,1.56,1.563l-37.633,51.385c-2.344,3.197-1.179,4.804,2.592,3.562l124.166-53.507
					c3.763-1.242,4.216-0.36,0.994,1.961l-115.331,70.844c-3.218,2.318-2.605,4.202,1.363,4.185l63.69-0.238
					c3.966-0.016,4.121,0.968,0.347,2.177l-60.65,19.458c-3.777,1.209-3.777,3.192,0,4.4l60.65,19.454
					c3.774,1.214,3.619,2.193-0.347,2.176l-63.69-0.238c-3.969-0.016-4.581,1.871-1.363,4.191l51.669,37.239
					c3.221,2.323,2.768,3.202-0.995,1.966l-60.503-19.912c-3.771-1.237-4.936,0.364-2.592,3.562l37.633,51.39
					c2.34,3.197,1.64,3.898-1.56,1.558l-51.389-37.632c-3.199-2.346-4.802-1.181-3.561,2.591l50.937,124.24
					c1.238,3.772,0.353,4.218-1.961,1.005l-68.272-115.416c-2.32-3.214-4.201-2.602-4.186,1.363l0.234,63.687
					c0.016,3.972-0.962,4.124-2.174,0.349l-19.452-60.651c-1.215-3.777-3.197-3.777-4.406,0l-19.456,60.651
					c-1.213,3.775-2.189,3.623-2.178-0.349l0.243-63.687c0.015-3.965-1.872-4.577-4.187-1.363l-37.244,51.671
					c-2.318,3.213-3.203,2.767-1.968-1.005l19.916-60.495c1.238-3.772-0.362-4.937-3.568-2.591l-51.389,37.632
					c-3.199,2.34-3.895,1.639-1.555-1.558l37.631-51.39c2.344-3.198,1.18-4.799-2.587-3.562L3.147,294.534
					c-3.767,1.237-4.216,0.357-1.003-1.966l112.898-69.636c3.213-2.32,2.601-4.207-1.364-4.191l-63.698,0.238
					c-3.962,0.017-4.117-0.962-0.339-2.176l60.65-19.454c3.774-1.208,3.774-3.191,0-4.4l-60.65-19.458
					c-3.778-1.209-3.623-2.193,0.339-2.177l63.698,0.238c3.965,0.017,4.577-1.867,1.364-4.185l-51.677-37.244
					c-3.213-2.32-2.764-3.203,1.002-1.961l60.503,19.907c3.767,1.242,4.931-0.365,2.587-3.562L89.827,93.123
					c-2.34-3.203-1.644-3.905,1.555-1.563l51.389,37.637c3.206,2.34,4.806,1.176,3.568-2.591L94.301,3.147
					c-1.234-3.766-0.35-4.218,1.968-1l69.366,114.624c2.315,3.219,4.202,2.607,4.187-1.359l-0.243-63.692
					c-0.011-3.966,0.965-4.12,2.178-0.343L191.212,112.022z"/>
			</g>
		</g>
	</g>
</g>
<path fill="#FFFFFF" d="M86.797,176.146H67.762l9.424-19.689L86.797,176.146z M80.311,146.368h-2.005l-27.029,53.83
	c0.97-0.071,1.913-0.232,3.044-0.232c1.04,0,1.998,0.161,3.218,0.232c2.417-7.26,5.535-14.041,8.576-20.806h21.983
	c3.468,6.997,6.593,14.396,9.107,20.806c1.47-0.071,2.948-0.232,4.584-0.232c1.474,0,2.853,0.161,4.518,0.232L80.311,146.368z"/>
<path fill="#FFFFFF" d="M173.153,147.538c2.263,19.017,4.666,37.956,7.024,52.66c-1.566-0.071-2.778-0.232-4.087-0.232
	c-1.374,0-2.764,0.161-4.057,0.232c-1.482-15.482-3.221-32.103-4.43-39.717c-10.057,15.93-17.509,28.232-22.724,38.868h-0.944
	l-4.761-8.703c-5.547-10.161-11.62-20.165-17.509-30.165c-1.909,15.003-4.257,30.237-4.257,39.717
	c-1.12-0.071-2.071-0.232-3.029-0.232c-1.128,0-2.071,0.161-3.111,0.232c2.245-12.406,7.441-44.559,8.322-52.66h2.251
	c6.933,12.254,15.247,26.715,24.527,40.342c8.24-13.159,16.204-26.548,24.954-40.342H173.153z"/>
<path fill="#FFFFFF" d="M196.806,150.381h6.405c9.074,0,14.689,2.077,14.689,9.382c0,4.153-2.418,7.544-6.655,9.311
	c-4.658,1.914-9.508,1.618-14.439,1.618V150.381z M189.163,199.944h12.403c5.964,0.078,13.129,0.078,18.247-3.075
	c5.03-3.087,7.791-7.553,7.791-13.019c0-8.924-9.092-11.695-15.847-12.082c7.61-1.701,13.683-6.389,13.683-13.616
	c0-7.931-6.589-10.625-19.284-10.625h-16.993V199.944z M196.806,173.535h4.843c10.459,0,17.903,2.55,17.903,11.629
	c0,7.006-6.062,11.932-14.523,11.932h-8.223V173.535z"/>
<path fill="#FFFFFF" d="M245.711,170.427h13.426c2.599,0,5.111-0.321,7.722-0.393c-0.09,0.608-0.388,1.309-0.388,2.005
	c0,0.608,0.298,1.309,0.388,2.149c-2.61-0.078-5.123-0.387-7.722-0.387h-13.426v22.523c5.274,0.16,10.481-0.155,15.678-0.31
	c2.69-0.077,5.299-0.309,7.976-0.691c-0.081,0.846-0.199,1.536-0.199,2.309c0,0.761,0.118,1.541,0.199,2.313H238.06v-52.406h30.78
	c-0.084,0.844-0.198,1.535-0.198,2.309c0,0.772,0.114,1.54,0.198,2.307c-2.609-0.463-5.2-0.69-7.805-0.844l-8.661-0.16h-6.663
	V170.427z"/>
<path fill="#FFFFFF" d="M285.631,150.398c3.627-0.16,9.516-0.375,12.715,0.078c6.501,0.928,9.53,4.389,9.53,9.696
	c0,6.015-4.755,9.862-11.09,11.005c-4.41,0.768-9.962,0.464-11.155,0.392V150.398z M277.966,200.199
	c1.216-0.072,2.521-0.232,3.825-0.232c1.227,0,2.443,0.16,3.84,0.232v-25.748h3.279l6.93,7.246l10.216,11.783
	c1.82,2.158,3.56,4.318,5.447,6.719c1.551-0.072,3.269-0.232,4.911-0.232c1.651,0,3.211,0.16,5.024,0.232l-1.626-1.938l-4.175-4.312
	l-17.812-20.088c8.745-1.38,17.73-5.682,17.73-14.61c0-7.774-5.875-11.712-19.187-11.712h-18.404V200.199z"/>
<path fill="#FFFFFF" d="M53.01,237.499c2.119,0.05,4.201-0.055,6.276-0.116c1.117-0.022,2.193-0.127,3.302-0.232
	c-0.04,0.293-0.07,0.531-0.07,0.801c0,0.26,0.03,0.524,0.07,0.795H49.98V220.73c0.483,0.014,1.01,0.086,1.515,0.086
	c0.49,0,0.97-0.072,1.515-0.086V237.499z"/>
<path fill="#FFFFFF" d="M81.771,230.856c0.207,2.425-1.99,7.223-8.093,7.223c-4.308,0-7.887-2.336-7.887-6.813
	c0-4.472,3.052-7.399,8.152-7.399c2.307,0,4.559,0.75,6.008,2.142C81.453,227.482,81.771,229.028,81.771,230.856 M73.596,238.807
	c6.442,0,10.99-3.214,10.99-8.128c0-5.294-5.506-7.537-10.935-7.537c-5.981,0-10.676,3.037-10.676,7.869
	C62.976,235.726,67.213,238.807,73.596,238.807"/>
<path fill="#FFFFFF" d="M90.041,224.351c1.253-0.017,2.469-0.089,3.656-0.089c6.493,0,9.022,1.701,9.022,6.378
	c0,2.696-1.039,5.147-4.18,6.333c-2.351,0.901-5.94,0.647-8.498,0.531V224.351z M87.512,238.486h5.638
	c3.063,0,6.288-0.05,8.753-1.668c2.171-1.451,3.623-3.438,3.623-6.51c0-2.097-0.921-4.146-3.074-5.515
	c-2.424-1.546-5.358-1.325-8.38-1.325h-6.56V238.486z"/>
<path fill="#FFFFFF" d="M125.435,226.118c-1.607-1.408-4.039-2.138-6.501-2.138c-4.916,0-8.321,2.475-8.321,6.914
	c0,4.362,2.94,7.069,8.631,7.069c1.57,0,3.195-0.221,4.518-0.741v-5.664c0.405,0.022,0.84,0.088,1.268,0.088
	c0.405,0,0.807-0.066,1.264-0.088v6.233c-2.503,0.662-5.163,1.01-7.85,1.01c-7.319,0-10.655-3.33-10.655-7.791
	c0-5.157,4.843-7.862,11.263-7.862c4.304,0,6.722,0.971,7.363,1.28c-0.265,0.548-0.464,1.122-0.671,1.69H125.435z"/>
<path fill="#FFFFFF" d="M130.004,223.468c0.398,0.022,0.826,0.072,1.253,0.072c0.413,0,0.807-0.05,1.272-0.072v15.095
	c-0.465-0.016-0.859-0.077-1.272-0.077c-0.427,0-0.855,0.061-1.253,0.077V223.468z"/>
<path fill="#FFFFFF" d="M153.746,238.563h-0.862c-0.324-0.302-0.903-0.844-1.504-1.341l-12.493-10.551h-0.302v11.892
	c-0.284-0.017-0.538-0.077-0.804-0.077c-0.28,0-0.546,0.06-0.811,0.077v-15.095h1.132l13.735,11.369h0.291v-11.369
	c0.255,0.022,0.52,0.072,0.8,0.072c0.266,0,0.516-0.05,0.818-0.072V238.563z"/>
<path fill="#FFFFFF" d="M174.885,226.118c-1.614-1.408-4.039-2.138-6.497-2.138c-4.92,0-8.329,2.475-8.329,6.914
	c0,4.362,2.948,7.069,8.649,7.069c1.563,0,3.177-0.221,4.511-0.741v-5.664c0.406,0.022,0.837,0.088,1.261,0.088
	c0.405,0,0.807-0.066,1.267-0.088v6.233c-2.498,0.662-5.159,1.01-7.853,1.01c-7.316,0-10.647-3.33-10.647-7.791
	c0-5.157,4.835-7.862,11.255-7.862c4.308,0,6.733,0.971,7.36,1.28c-0.262,0.548-0.457,1.122-0.66,1.69H174.885z"/>
<path fill="#FFFFFF" d="M204.526,237.399c-2.174,1.093-5.016,1.485-7.653,1.485c-7.629,0-12.185-3.661-12.185-9.458
	c0-5.946,5.728-9.337,13.046-9.337c2.535,0,5.134,0.453,7.452,1.214c-0.339,0.669-0.553,1.353-0.723,2.038l-0.246,0.028
	c-0.479-0.47-3.049-2.276-6.616-2.276c-6.383,0-9.545,3.944-9.545,8.438c0,5.08,3.814,8.344,9.298,8.344
	c3.748,0,6.66-1.696,7.346-2.149L204.526,237.399z"/>
<path fill="#FFFFFF" d="M225.736,230.856c0.198,2.425-1.99,7.223-8.093,7.223c-4.309,0-7.88-2.336-7.88-6.813
	c0-4.472,3.059-7.399,8.145-7.399c2.314,0,4.562,0.75,6.008,2.142C225.416,227.482,225.736,229.028,225.736,230.856
	 M217.569,238.807c6.432,0,10.986-3.214,10.986-8.128c0-5.294-5.51-7.537-10.938-7.537c-5.978,0-10.677,3.037-10.677,7.869
	C206.94,235.726,211.172,238.807,217.569,238.807"/>
<path fill="#FFFFFF" d="M250.502,223.468c0.748,5.455,1.562,10.883,2.351,15.095c-0.538-0.016-0.942-0.077-1.374-0.077
	c-0.454,0-0.922,0.061-1.356,0.077c-0.49-4.438-1.065-9.209-1.478-11.391c-3.347,4.574-5.838,8.095-7.562,11.148h-0.324
	l-1.585-2.489c-1.846-2.915-3.873-5.792-5.841-8.659c-0.638,4.308-1.408,8.675-1.412,11.391c-0.372-0.016-0.7-0.077-1.013-0.077
	c-0.372,0-0.689,0.061-1.048,0.077c0.753-3.554,2.495-12.782,2.783-15.095h0.751c2.308,3.507,5.098,7.664,8.183,11.563
	c2.742-3.778,5.402-7.616,8.321-11.563H250.502z"/>
<path fill="#FFFFFF" d="M257.909,224.334c0.862-0.049,2.927-0.071,4.168,0.017c2.296,0.16,3.277,1.347,3.277,2.851
	c0,1.958-1.681,3.344-4.578,3.565c-0.991,0.067-2.137,0.067-2.867,0V224.334z M257.909,231.613c0.73,0,2.605,0.166,3.907-0.038
	c4.09-0.608,6.183-1.829,6.183-4.495c0-2.663-1.835-3.612-7.458-3.612h-5.159v15.096c0.397-0.017,0.824-0.078,1.257-0.078
	c0.4,0,0.803,0.061,1.271,0.078V231.613z"/>
<path fill="#FFFFFF" d="M278.725,231.674h-6.354l3.142-5.639L278.725,231.674z M276.551,223.147h-0.66l-9.01,15.416
	c0.312-0.017,0.626-0.078,1.009-0.078c0.347,0,0.66,0.061,1.076,0.078c0.804-2.069,1.85-4.019,2.853-5.958h7.327
	c1.157,2.005,2.196,4.126,3.043,5.958c0.491-0.017,0.977-0.078,1.521-0.078c0.491,0,0.955,0.061,1.516,0.078L276.551,223.147z"/>
<path fill="#FFFFFF" d="M304.153,238.563h-0.87c-0.315-0.302-0.892-0.844-1.495-1.341l-12.497-10.551h-0.284v11.892
	c-0.287-0.017-0.549-0.077-0.812-0.077c-0.287,0-0.542,0.06-0.807,0.077v-15.095h1.124l13.739,11.369h0.288v-11.369
	c0.261,0.022,0.522,0.072,0.803,0.072c0.258,0,0.522-0.05,0.811-0.072V238.563z"/>
<path fill="#FFFFFF" d="M315.977,238.563c-0.453-0.017-0.862-0.077-1.257-0.077c-0.438,0-0.87,0.06-1.279,0.077v-6.355l-7.064-8.74
	c0.513,0.022,1.065,0.072,1.604,0.072c0.501,0,1.023-0.05,1.592-0.072c1.135,1.701,4.57,6.339,5.476,7.393
	c0.981-0.883,4.688-6.223,5.529-7.393c0.338,0.022,0.751,0.072,1.12,0.072c0.346,0,0.722-0.05,1.128-0.072
	c-0.729,0.7-1.419,1.457-2.05,2.207l-3.185,3.91c-0.655,0.763-1.237,1.58-1.613,2.204V238.563z"/>
</svg>
