<?xml version="1.0" encoding="utf-8"?>
<!-- Generator: Adobe Illustrator 15.1.0, SVG Export Plug-In . SVG Version: 6.00 Build 0)  -->
<!DOCTYPE svg PUBLIC "-//W3C//DTD SVG 1.1//EN" "http://www.w3.org/Graphics/SVG/1.1/DTD/svg11.dtd">
<svg version="1.1" id="Layer_1" xmlns="http://www.w3.org/2000/svg" xmlns:xlink="http://www.w3.org/1999/xlink" x="0px" y="0px"
	 width="208.779px" height="209.752px" viewBox="0 0 208.779 209.752" enable-background="new 0 0 208.779 209.752"
	 xml:space="preserve">
<g opacity="0.6">
	<g>
		<defs>
			<rect id="SVGID_1_" width="208.778" height="209.752"/>
		</defs>
		<clipPath id="SVGID_2_">
			<use xlink:href="#SVGID_1_"  overflow="visible"/>
		</clipPath>
		<path clip-path="url(#SVGID_2_)" fill="#FFEEBC" d="M102.553,60.082c0.648,2.025,1.712,2.025,2.364,0l10.432-32.526
			c0.651-2.026,1.175-1.943,1.167,0.184l-0.127,34.16c-0.008,2.127,1,2.455,2.245,0.729l19.977-27.711
			c1.24-1.727,1.716-1.483,1.052,0.537l-10.678,32.447c-0.666,2.021,0.193,2.646,1.908,1.391l27.562-20.187
			c1.716-1.256,2.091-0.88,0.836,0.838l-20.183,27.561c-1.258,1.714-0.634,2.576,1.389,1.91l66.595-28.698
			c2.019-0.666,2.261-0.192,0.533,1.052l-61.856,37.996c-1.725,1.244-1.396,2.254,0.732,2.245l34.159-0.128
			c2.127-0.009,2.21,0.519,0.186,1.168l-32.528,10.436c-2.026,0.648-2.026,1.712,0,2.36l32.528,10.433
			c2.024,0.652,1.941,1.178-0.186,1.168l-34.159-0.128c-2.129-0.009-2.457,1.003-0.732,2.247l27.712,19.974
			c1.729,1.245,1.484,1.718-0.533,1.054l-32.45-10.679c-2.022-0.663-2.646,0.195-1.389,1.909l20.183,27.563
			c1.255,1.714,0.88,2.09-0.836,0.835l-27.562-20.183c-1.715-1.259-2.574-0.635-1.908,1.389l27.317,66.635
			c0.665,2.023,0.19,2.262-1.051,0.538l-36.617-61.901c-1.245-1.724-2.253-1.395-2.245,0.731l0.127,34.158
			c0.008,2.13-0.516,2.212-1.167,0.187l-10.432-32.528c-0.652-2.026-1.716-2.026-2.364,0L92.12,181.775
			c-0.651,2.025-1.175,1.943-1.169-0.187l0.131-34.158c0.008-2.126-1.004-2.455-2.246-0.731L68.86,174.413
			c-1.243,1.724-1.718,1.483-1.056-0.539l10.682-32.446c0.664-2.023-0.194-2.647-1.913-1.389l-27.562,20.183
			c-1.716,1.255-2.089,0.879-0.834-0.835l20.183-27.563c1.257-1.714,0.632-2.572-1.388-1.909L1.688,157.969
			c-2.02,0.663-2.261,0.192-0.538-1.054l60.551-37.35c1.723-1.244,1.395-2.256-0.731-2.247l-34.164,0.128
			c-2.125,0.01-2.208-0.516-0.182-1.168l32.529-10.433c2.024-0.648,2.024-1.712,0-2.36L26.625,93.05
			c-2.026-0.649-1.943-1.177,0.182-1.168L60.97,92.01c2.126,0.009,2.454-1.001,0.731-2.245L33.985,69.79
			c-1.723-1.244-1.482-1.719,0.538-1.053l32.449,10.678c2.02,0.666,2.645-0.196,1.388-1.91L48.177,49.944
			c-1.255-1.718-0.882-2.094,0.834-0.838l27.562,20.187c1.719,1.255,2.577,0.63,1.913-1.391L50.578,1.688
			c-0.662-2.02-0.188-2.262,1.055-0.537l37.203,61.478c1.242,1.726,2.254,1.397,2.246-0.729l-0.131-34.16
			c-0.006-2.127,0.518-2.21,1.169-0.184L102.553,60.082z"/>
	</g>
</g>
<path fill="#231F20" d="M46.553,94.474H36.344l5.054-10.561L46.553,94.474z M43.074,78.503h-1.075l-14.497,28.871
	c0.52-0.039,1.026-0.125,1.633-0.125c0.557,0,1.071,0.086,1.726,0.125c1.296-3.895,2.968-7.531,4.599-11.159h11.79
	c1.86,3.753,3.537,7.721,4.885,11.159c0.788-0.039,1.581-0.125,2.459-0.125c0.79,0,1.529,0.086,2.423,0.125L43.074,78.503z"/>
<path fill="#231F20" d="M92.868,79.13c1.214,10.199,2.502,20.357,3.767,28.243c-0.84-0.038-1.49-0.124-2.192-0.124
	c-0.737,0-1.482,0.086-2.176,0.124c-0.794-8.303-1.727-17.218-2.376-21.301c-5.394,8.544-9.39,15.142-12.187,20.846h-0.506
	l-2.554-4.668c-2.975-5.449-6.232-10.814-9.391-16.178c-1.024,8.047-2.283,16.217-2.283,21.301
	c-0.601-0.038-1.111-0.124-1.625-0.124c-0.604,0-1.11,0.086-1.668,0.124c1.204-6.654,3.991-23.898,4.463-28.243h1.208
	c3.718,6.572,8.177,14.328,13.154,21.637c4.42-7.058,8.691-14.238,13.384-21.637H92.868z"/>
<path fill="#231F20" d="M105.554,80.655h3.435c4.867,0,7.879,1.113,7.879,5.031c0,2.228-1.297,4.047-3.57,4.993
	c-2.497,1.027-5.099,0.868-7.743,0.868V80.655z M101.455,107.237h6.653c3.198,0.042,7.04,0.042,9.786-1.649
	c2.698-1.656,4.178-4.051,4.178-6.983c0-4.785-4.876-6.271-8.499-6.479c4.082-0.912,7.339-3.426,7.339-7.302
	c0-4.254-3.534-5.699-10.343-5.699h-9.114V107.237z M105.554,93.073h2.597c5.61,0,9.602,1.368,9.602,6.236
	c0,3.759-3.251,6.399-7.789,6.399h-4.409V93.073z"/>
<path fill="#231F20" d="M131.783,91.405h7.201c1.394,0,2.741-0.172,4.142-0.21c-0.049,0.326-0.208,0.701-0.208,1.075
	c0,0.326,0.159,0.701,0.208,1.152c-1.4-0.042-2.748-0.208-4.142-0.208h-7.201v12.08c2.828,0.086,5.621-0.082,8.408-0.166
	c1.443-0.041,2.843-0.166,4.278-0.37c-0.044,0.454-0.107,0.823-0.107,1.238c0,0.407,0.063,0.825,0.107,1.239H127.68V79.13h16.508
	c-0.045,0.453-0.106,0.824-0.106,1.239c0,0.414,0.062,0.825,0.106,1.236c-1.398-0.248-2.789-0.37-4.186-0.453l-4.646-0.086h-3.574
	V91.405z"/>
<path fill="#231F20" d="M153.194,80.663c1.944-0.086,5.104-0.2,6.818,0.042c3.487,0.498,5.112,2.354,5.112,5.2
	c0,3.227-2.55,5.29-5.948,5.902c-2.366,0.413-5.342,0.249-5.982,0.211V80.663z M149.083,107.373
	c0.651-0.037,1.352-0.124,2.052-0.124c0.658,0,1.311,0.087,2.06,0.124V93.564h1.759l3.716,3.886l5.479,6.32
	c0.978,1.157,1.91,2.315,2.923,3.603c0.831-0.037,1.753-0.124,2.635-0.124c0.885,0,1.721,0.087,2.693,0.124l-0.872-1.04
	l-2.238-2.312l-9.554-10.774c4.69-0.739,9.51-3.047,9.51-7.836c0-4.169-3.15-6.28-10.29-6.28h-9.871V107.373z"/>
<path fill="#231F20" d="M28.431,127.379c1.136,0.026,2.253-0.03,3.366-0.062c0.599-0.012,1.176-0.067,1.771-0.125
	c-0.022,0.157-0.037,0.285-0.037,0.43c0,0.141,0.015,0.281,0.037,0.427h-6.762v-9.662c0.259,0.008,0.542,0.046,0.813,0.046
	c0.262,0,0.52-0.038,0.812-0.046V127.379z"/>
<path fill="#231F20" d="M43.856,123.816c0.111,1.3-1.067,3.874-4.341,3.874c-2.31,0-4.229-1.254-4.229-3.655
	c0-2.398,1.636-3.968,4.372-3.968c1.237,0,2.445,0.402,3.222,1.148C43.687,122.007,43.856,122.835,43.856,123.816 M39.473,128.08
	c3.455,0,5.894-1.724,5.894-4.358c0-2.84-2.953-4.043-5.864-4.043c-3.209,0-5.727,1.629-5.727,4.221
	C33.775,126.429,36.05,128.08,39.473,128.08"/>
<path fill="#231F20" d="M48.292,120.327c0.672-0.009,1.324-0.048,1.961-0.048c3.482,0,4.838,0.913,4.838,3.421
	c0,1.446-0.557,2.76-2.241,3.397c-1.261,0.482-3.186,0.346-4.558,0.283V120.327z M46.936,127.908h3.024
	c1.643,0,3.372-0.027,4.694-0.894c1.165-0.779,1.943-1.846,1.943-3.492c0-1.125-0.494-2.225-1.648-2.958
	c-1.301-0.829-2.874-0.711-4.495-0.711h-3.518V127.908z"/>
<path fill="#231F20" d="M67.275,121.275c-0.862-0.756-2.166-1.146-3.487-1.146c-2.637,0-4.463,1.327-4.463,3.708
	c0,2.339,1.578,3.791,4.629,3.791c0.842,0,1.714-0.119,2.424-0.397v-3.038c0.217,0.012,0.45,0.048,0.68,0.048
	c0.217,0,0.432-0.036,0.677-0.048v3.344c-1.342,0.354-2.769,0.541-4.21,0.541c-3.925,0-5.714-1.785-5.714-4.178
	c0-2.767,2.597-4.218,6.041-4.218c2.308,0,3.605,0.521,3.949,0.688c-0.143,0.293-0.249,0.602-0.36,0.906H67.275z"/>
<path fill="#231F20" d="M69.726,119.854c0.214,0.012,0.443,0.039,0.672,0.039c0.221,0,0.433-0.027,0.682-0.039v8.096
	c-0.249-0.009-0.461-0.041-0.682-0.041c-0.229,0-0.458,0.032-0.672,0.041V119.854z"/>
<path fill="#231F20" d="M82.459,127.95h-0.462c-0.174-0.162-0.485-0.453-0.807-0.72l-6.701-5.659h-0.162v6.379
	c-0.152-0.01-0.288-0.042-0.43-0.042c-0.151,0-0.293,0.032-0.435,0.042v-8.097h0.606l7.367,6.099h0.156v-6.099
	c0.137,0.013,0.279,0.039,0.429,0.039c0.143,0,0.277-0.026,0.439-0.039V127.95z"/>
<path fill="#231F20" d="M93.797,121.275c-0.866-0.756-2.166-1.146-3.485-1.146c-2.638,0-4.467,1.327-4.467,3.708
	c0,2.339,1.581,3.791,4.639,3.791c0.838,0,1.704-0.119,2.42-0.397v-3.038c0.217,0.012,0.448,0.048,0.676,0.048
	c0.217,0,0.432-0.036,0.679-0.048v3.344c-1.34,0.354-2.767,0.541-4.212,0.541c-3.923,0-5.71-1.785-5.71-4.178
	c0-2.767,2.593-4.218,6.037-4.218c2.31,0,3.611,0.521,3.947,0.688c-0.14,0.293-0.245,0.602-0.354,0.906H93.797z"/>
<path fill="#231F20" d="M109.695,127.325c-1.166,0.586-2.69,0.797-4.105,0.797c-4.092,0-6.534-1.964-6.534-5.073
	c0-3.188,3.071-5.008,6.996-5.008c1.36,0,2.754,0.243,3.997,0.651c-0.182,0.358-0.297,0.726-0.388,1.093l-0.132,0.015
	c-0.257-0.252-1.635-1.22-3.548-1.22c-3.424,0-5.119,2.115-5.119,4.525c0,2.725,2.045,4.475,4.987,4.475
	c2.01,0,3.57-0.909,3.938-1.152L109.695,127.325z"/>
<path fill="#231F20" d="M121.07,123.816c0.107,1.3-1.066,3.874-4.341,3.874c-2.31,0-4.225-1.254-4.225-3.655
	c0-2.398,1.64-3.968,4.367-3.968c1.241,0,2.447,0.402,3.223,1.148C120.898,122.007,121.07,122.835,121.07,123.816 M116.69,128.08
	c3.449,0,5.893-1.724,5.893-4.358c0-2.84-2.955-4.043-5.866-4.043c-3.206,0-5.728,1.629-5.728,4.221
	C110.989,126.429,113.258,128.08,116.69,128.08"/>
<path fill="#231F20" d="M134.353,119.854c0.4,2.926,0.838,5.837,1.261,8.096c-0.288-0.009-0.506-0.041-0.737-0.041
	c-0.243,0-0.494,0.032-0.728,0.041c-0.264-2.381-0.571-4.938-0.792-6.108c-1.795,2.452-3.131,4.341-4.057,5.979h-0.174l-0.85-1.335
	c-0.99-1.563-2.077-3.106-3.133-4.644c-0.343,2.31-0.756,4.651-0.758,6.108c-0.198-0.009-0.376-0.041-0.544-0.041
	c-0.198,0-0.369,0.032-0.561,0.041c0.403-1.905,1.338-6.855,1.492-8.096h0.403c1.237,1.881,2.733,4.11,4.389,6.202
	c1.47-2.026,2.896-4.085,4.463-6.202H134.353z"/>
<path fill="#231F20" d="M138.326,120.318c0.462-0.026,1.569-0.038,2.236,0.009c1.23,0.086,1.757,0.723,1.757,1.528
	c0,1.052-0.902,1.795-2.455,1.912c-0.532,0.036-1.147,0.036-1.538,0V120.318z M138.326,124.222c0.391,0,1.397,0.089,2.095-0.021
	c2.194-0.326,3.317-0.98,3.317-2.41c0-1.428-0.984-1.938-4.001-1.938h-2.768v8.097c0.215-0.009,0.443-0.042,0.675-0.042
	c0.215,0,0.431,0.033,0.682,0.042V124.222z"/>
<path fill="#231F20" d="M149.49,124.255h-3.408l1.685-3.024L149.49,124.255z M148.324,119.682h-0.354l-4.833,8.269
	c0.168-0.01,0.336-0.042,0.542-0.042c0.187,0,0.354,0.032,0.577,0.042c0.431-1.11,0.992-2.155,1.53-3.195h3.93
	c0.62,1.075,1.178,2.213,1.632,3.195c0.263-0.01,0.524-0.042,0.816-0.042c0.263,0,0.512,0.032,0.812,0.042L148.324,119.682z"/>
<path fill="#231F20" d="M163.128,127.95h-0.468c-0.169-0.162-0.478-0.453-0.802-0.72l-6.703-5.659h-0.151v6.379
	c-0.154-0.01-0.295-0.042-0.436-0.042c-0.154,0-0.29,0.032-0.433,0.042v-8.097h0.603l7.369,6.099h0.154v-6.099
	c0.141,0.013,0.281,0.039,0.431,0.039c0.138,0,0.281-0.026,0.436-0.039V127.95z"/>
<path fill="#231F20" d="M169.469,127.95c-0.243-0.01-0.463-0.042-0.675-0.042c-0.234,0-0.467,0.032-0.686,0.042v-3.408l-3.789-4.688
	c0.275,0.013,0.571,0.039,0.86,0.039c0.269,0,0.549-0.026,0.854-0.039c0.608,0.912,2.451,3.4,2.938,3.965
	c0.525-0.473,2.514-3.337,2.965-3.965c0.182,0.013,0.402,0.039,0.601,0.039c0.186,0,0.387-0.026,0.605-0.039
	c-0.393,0.376-0.762,0.782-1.1,1.185l-1.708,2.097c-0.352,0.409-0.664,0.847-0.865,1.182V127.95z"/>
</svg>
